# xmcd
#
# Track frame offsets: 
#        150
#        19528
#        41221
#        63303
#        82918
#        103754
#        132110
#        154343
#        176456
#        196073
#        213112
#        233356
#        265280
#
# Disc length: 3776 seconds
#
# Revision: 0
# Processed by: cddbd v1.5.2PL0 Copyright (c) Steve Scherf et al.
# Submitted via: ExactAudioCopyFreeDBPlugin 1.0
#
DISCID=9f0ebe0d
DTITLE=Lam Truong - Anh nho em nhieu
DYEAR=1900
DGENRE=
TTITLE0=Tinh la nua doi
TTITLE1=Tinh lam lo
TTITLE2=Tinh mai bo vo
TTITLE3=Tinh yeu bat tan
TTITLE4=Tinh yeu dam me
TTITLE5=Tinh yeu ngay mai
TTITLE6=Toi ngan nam doi
TTITLE7=Tuyet lanh
TTITLE8=Xin den trong giac mo
TTITLE9=Xin dung hoi
TTITLE10=Xin yeu em mai
TTITLE11=Yeu em mai mai
TTITLE12=Yeu tham
EXTD=
EXTT0=
EXTT1=
EXTT2=
EXTT3=
EXTT4=
EXTT5=
EXTT6=
EXTT7=
EXTT8=
EXTT9=
EXTT10=
EXTT11=
EXTT12=
PLAYORDER=
